<?xml version="1.0" encoding="utf-8"?>
<!-- Generator: Adobe Illustrator 19.1.0, SVG Export Plug-In . SVG Version: 6.00 Build 0)  -->
<svg version="1.1" id="Layer_1" xmlns="http://www.w3.org/2000/svg" xmlns:xlink="http://www.w3.org/1999/xlink" x="0px" y="0px"
	 viewBox="0 0 129.4 42.3" style="enable-background:new 0 0 129.4 42.3;" xml:space="preserve">
<style type="text/css">
	.st0{fill:#9D1C20;}
</style>
<g>
	<g>
		<path class="st0" d="M3.4,9.9c2.1-0.5,3.1-0.7,5.2-1.2c2.2,10,3.3,15,5.4,24.9c3.1-0.7,4.7-1,7.8-1.6c0.3,1.7,0.5,2.5,0.8,4.2
			c-4.9,0.9-7.4,1.4-12.3,2.6C8.1,29.2,5.7,19.5,3.4,9.9z"/>
		<path class="st0" d="M20.1,13.7c-0.4-2.4-0.1-4.3,1-5.8c1.1-1.5,2.9-2.4,5.5-2.8s4.6,0,6.1,1.1c1.4,1.1,2.3,2.9,2.6,5.3
			c0,0.4,0.1,0.6,0.1,0.9c-1.9,0.2-2.9,0.3-4.8,0.6c-0.1-0.5-0.1-0.7-0.2-1.2c-0.1-1.1-0.5-1.8-1-2.2c-0.5-0.4-1.2-0.5-2-0.4
			c-0.8,0.1-1.4,0.4-1.8,0.9c-0.4,0.5-0.5,1.3-0.3,2.4c0.2,1,0.5,1.9,1.2,2.6c0.6,0.7,1.3,1.3,2.2,1.9c0.8,0.6,1.7,1.2,2.6,1.7
			c0.9,0.6,1.8,1.2,2.6,2c0.8,0.7,1.5,1.6,2.1,2.6c0.6,1,1,2.2,1.1,3.6c0.3,2.4-0.1,4.3-1.1,5.7c-1,1.4-2.7,2.3-5,2.6
			s-4.1,0-5.5-1.1c-1.4-1.1-2.3-2.8-2.7-5.2c-0.1-0.7-0.2-1.1-0.3-1.8c1.8-0.3,2.7-0.5,4.6-0.8c0.1,0.8,0.2,1.3,0.3,2.1
			c0.2,1.1,0.5,1.8,1,2.1c0.5,0.4,1.1,0.5,1.9,0.4c0.7-0.1,1.3-0.4,1.7-0.9c0.4-0.5,0.5-1.3,0.4-2.3c-0.1-1-0.5-1.9-1.1-2.6
			c-0.6-0.7-1.3-1.4-2.1-1.9c-0.8-0.6-1.7-1.2-2.6-1.7c-0.9-0.6-1.8-1.2-2.7-1.9c-0.9-0.7-1.6-1.5-2.3-2.5
			C20.8,16.3,20.4,15.1,20.1,13.7z"/>
		<path class="st0" d="M50,24.2c0.8-8.5,1.3-12.8,2.4-21.3c3-0.1,4.4-0.2,7.4-0.2c0.2,9.9,0.4,19.8,0.5,29.8c-1.8,0-2.7,0.1-4.5,0.1
			c-0.3-8.5-0.5-12.8-0.8-21.3c-1.1,8.6-1.6,12.9-2.5,21.5c-1.8,0.1-2.7,0.1-4.5,0.3c-2-8.3-3.1-12.4-5.3-20.7
			c0.7,8.4,1.1,12.6,1.8,21c-1.6,0.1-2.5,0.2-4.1,0.4c-1-9.9-2-19.7-3.1-29.6c2.9-0.3,4.4-0.4,7.4-0.7C47.1,11.7,48.1,15.9,50,24.2z
			"/>
		<path class="st0" d="M63.3,9.8c0-2.4,0.7-4.3,2-5.6c1.4-1.3,3.4-1.9,6-1.8c2.6,0.1,4.6,0.8,5.9,2.2c1.3,1.4,1.9,3.2,1.7,5.6
			c-0.4,6.2-0.5,9.3-0.9,15.5c-0.1,2.4-0.9,4.2-2.2,5.4c-1.3,1.2-3.1,1.8-5.4,1.7s-4.1-0.7-5.3-2c-1.2-1.3-1.9-3.1-1.9-5.5
			C63.3,19.1,63.3,16,63.3,9.8z M68.2,25.6c0,1.1,0.2,1.8,0.6,2.3c0.4,0.4,1,0.7,1.8,0.7c0.8,0,1.4-0.2,1.8-0.6
			c0.5-0.4,0.7-1.2,0.8-2.2c0.2-6.4,0.4-9.6,0.6-16.1c0-1.1-0.2-1.8-0.7-2.3c-0.5-0.5-1.1-0.7-2-0.7c-0.8,0-1.5,0.2-2,0.6
			c-0.5,0.4-0.8,1.2-0.8,2.3C68.3,16,68.3,19.2,68.2,25.6z"/>
		<path class="st0" d="M88.3,28.2c2.4-9.5,3.7-14.3,6.5-23.7c1.9,0.2,2.9,0.4,4.9,0.6c-3.1,9.6-6,19.2-8.6,28.9
			c-2.8-0.3-4.2-0.5-7-0.7c-0.7-10-1.6-20.1-2.7-30c2.1,0.1,3.2,0.2,5.4,0.4C87.5,13.4,87.8,18.3,88.3,28.2z"/>
		<path class="st0" d="M102.1,5.4c2.1,0.3,3.2,0.5,5.3,0.8c-1.6,9.8-3.3,19.6-4.9,29.4c-1.9-0.3-2.8-0.5-4.7-0.7
			C99.3,25,100.7,15.2,102.1,5.4z"/>
		<path class="st0" d="M114,20.2c2.7,0.6,4.1,0.9,6.8,1.5c-0.4,1.7-0.6,2.5-1,4.1c-2.7-0.6-4-0.9-6.7-1.5c-0.7,3.4-1,5.1-1.7,8.5
			c3.3,0.7,4.9,1,8.1,1.8c-0.4,1.7-0.6,2.5-1,4.1c-5-1.2-7.6-1.7-12.7-2.7c1.8-9.8,3.5-19.5,5.3-29.3c5.7,1,8.6,1.6,14.3,3
			c-0.4,1.7-0.6,2.5-1,4.1c-3.5-0.9-5.3-1.2-8.9-2C115,15.3,114.6,16.9,114,20.2z"/>
	</g>
</g>
</svg>
